<?xml version="1.0" encoding="UTF-8"?>
<svg xmlns="http://www.w3.org/2000/svg" xmlns:xlink="http://www.w3.org/1999/xlink" width="24px" height="24px" viewBox="0 0 24 24" version="1.1">
<g id="surface1">
<path style=" stroke:none;fill-rule:nonzero;fill:rgb(0%,0%,0%);fill-opacity:1;" d="M 2.339844 8.449219 C 1.828125 8.527344 1.269531 8.730469 0.882812 8.980469 C 0.714844 9.085938 0.449219 9.375 0.324219 9.589844 C 0.175781 9.847656 0.105469 10.050781 0.046875 10.40625 C -0.015625 10.765625 0.0078125 11.074219 0.121094 11.4375 C 0.328125 12.113281 0.980469 12.507812 2.472656 12.859375 C 2.988281 12.976562 3.183594 13.054688 3.28125 13.171875 C 3.453125 13.375 3.394531 13.582031 3.136719 13.710938 C 3.003906 13.777344 2.949219 13.785156 2.671875 13.78125 C 2.324219 13.78125 2.121094 13.746094 1.753906 13.628906 C 1.503906 13.546875 0.945312 13.285156 0.757812 13.15625 L 0.644531 13.078125 L 0.578125 13.296875 C 0.445312 13.746094 0.0898438 14.988281 0.0898438 15.007812 C 0.0898438 15.03125 0.492188 15.199219 0.808594 15.304688 C 1.765625 15.628906 2.992188 15.691406 3.859375 15.464844 C 4.65625 15.253906 5.21875 14.78125 5.507812 14.074219 L 5.574219 13.914062 L 5.605469 14.113281 C 5.714844 14.730469 6.046875 15.179688 6.578125 15.421875 C 7.144531 15.675781 8.011719 15.6875 8.824219 15.449219 C 9.15625 15.351562 9.71875 15.097656 9.941406 14.941406 L 10.074219 14.851562 L 10.25 15.023438 C 10.675781 15.433594 11.257812 15.628906 11.910156 15.589844 C 12.457031 15.554688 12.828125 15.40625 13.144531 15.085938 L 13.339844 14.890625 L 13.410156 15.019531 C 13.550781 15.285156 13.875 15.484375 14.277344 15.558594 C 14.699219 15.632812 15.5625 15.589844 15.894531 15.484375 C 15.980469 15.453125 16.058594 15.441406 16.066406 15.453125 C 16.078125 15.46875 16.597656 15.480469 17.222656 15.480469 L 18.359375 15.480469 L 18.359375 12.269531 L 18.457031 12.210938 C 18.613281 12.113281 18.855469 12.078125 19.039062 12.117188 C 19.230469 12.160156 19.328125 12.238281 19.417969 12.398438 C 19.484375 12.523438 19.484375 12.539062 19.492188 14.023438 L 19.503906 15.519531 L 19.640625 15.496094 C 19.714844 15.488281 20.222656 15.480469 20.761719 15.480469 L 21.75 15.480469 L 21.75 13.757812 C 21.75 11.960938 21.742188 11.792969 21.609375 11.339844 C 21.421875 10.6875 20.960938 10.203125 20.398438 10.078125 C 19.695312 9.914062 18.945312 10.050781 18.472656 10.414062 L 18.359375 10.507812 L 18.359375 10.109375 L 16.050781 10.109375 L 16.050781 13.640625 L 15.957031 13.660156 C 15.90625 13.671875 15.792969 13.679688 15.703125 13.679688 C 15.433594 13.679688 15.449219 13.800781 15.449219 11.828125 L 15.449219 10.109375 L 13.171875 10.109375 L 13.171875 10.3125 C 13.171875 10.429688 13.160156 10.527344 13.152344 10.535156 C 13.144531 10.546875 13.046875 10.488281 12.9375 10.40625 C 12.695312 10.222656 12.5625 10.152344 12.320312 10.089844 C 12.097656 10.03125 11.515625 10.023438 11.296875 10.078125 C 10.390625 10.289062 9.71875 10.976562 9.476562 11.925781 C 9.421875 12.148438 9.40625 12.289062 9.402344 12.71875 L 9.394531 13.246094 L 9.21875 13.339844 C 8.921875 13.507812 8.597656 13.601562 8.324219 13.605469 C 8.039062 13.605469 7.949219 13.558594 7.878906 13.378906 C 7.839844 13.28125 7.828125 13.128906 7.828125 12.554688 L 7.828125 11.851562 L 8.589844 11.84375 L 9.34375 11.835938 L 9.355469 10.972656 L 9.359375 10.109375 L 7.800781 10.109375 L 7.800781 8.789062 L 5.550781 8.789062 L 5.550781 10.621094 C 5.550781 11.625 5.539062 12.449219 5.527344 12.449219 C 5.515625 12.445312 5.457031 12.371094 5.398438 12.277344 C 5.21875 11.988281 4.804688 11.691406 4.257812 11.457031 C 4.105469 11.390625 3.691406 11.25 3.335938 11.140625 C 2.5625 10.90625 2.46875 10.867188 2.359375 10.738281 C 2.257812 10.617188 2.269531 10.503906 2.390625 10.375 C 2.507812 10.25 2.660156 10.222656 3.058594 10.238281 C 3.585938 10.261719 4.210938 10.460938 4.75 10.769531 C 4.863281 10.835938 4.960938 10.886719 4.96875 10.882812 C 4.972656 10.878906 4.980469 10.410156 4.984375 9.839844 L 4.984375 8.808594 L 4.796875 8.734375 C 4.539062 8.640625 4.109375 8.527344 3.789062 8.472656 C 3.394531 8.40625 2.683594 8.390625 2.339844 8.449219 Z M 12.726562 12.003906 C 12.8125 12.019531 12.949219 12.070312 13.027344 12.109375 L 13.171875 12.179688 L 13.171875 12.789062 C 13.171875 13.121094 13.15625 13.410156 13.144531 13.429688 C 13.105469 13.488281 12.890625 13.582031 12.703125 13.621094 C 12.5 13.660156 12.285156 13.644531 12.144531 13.570312 C 11.824219 13.410156 11.699219 13.207031 11.699219 12.820312 C 11.699219 12.613281 11.710938 12.554688 11.792969 12.394531 C 11.96875 12.042969 12.285156 11.910156 12.726562 12.003906 Z M 12.726562 12.003906 "/>
<path style=" stroke:none;fill-rule:nonzero;fill:rgb(0%,0%,0%);fill-opacity:1;" d="M 22.621094 13.714844 C 22.320312 13.800781 22.109375 14.074219 22.054688 14.441406 C 22.003906 14.800781 22.0625 15.035156 22.261719 15.253906 C 22.4375 15.445312 22.644531 15.519531 22.996094 15.519531 C 23.617188 15.519531 23.96875 15.191406 23.96875 14.609375 C 23.96875 14.226562 23.804688 13.933594 23.507812 13.777344 C 23.375 13.710938 23.308594 13.699219 23.039062 13.691406 C 22.867188 13.6875 22.675781 13.695312 22.621094 13.714844 Z M 22.621094 13.714844 "/>
</g>
</svg>
